# xmcd CD database file
#
# Track frame offsets:
#	150
#	36624
#	72261
#	94010
#	114658
#	148132
#	180144
#	211821
#	250035
#	289825
#
# Disc length: 4198 seconds
#
# Revision: 0
# Processed by: cddbd v1.5.2PL0 Copyright (c) Steve Scherf et al.
# Submitted via: CDex 1.70beta2
#
DISCID=9110640a
DTITLE=Magiczny świat jazzu - Polscy instrumentaliści jazzowi
DYEAR=2009
DGENRE=Jazz
TTITLE0=Kwartet Jana Ptaszyna Wróblewskiego - Grzmot Nad Ranem
TTITLE1=Kwartet Jana Ptaszyna Wróbleskiego - Dlaczego Małpa
TTITLE2=Kwintet Andrzeja Kurylewicza - 10+8
TTITLE3=Krzysztof Sadowski - Blues z Morałem
TTITLE4=Trio Mieczysława Kosza - Wspomnienie
TTITLE5=Piotr Wajtasik - Emily
TTITLE6=Piotr Wojtasik - Phantoms
TTITLE7=Krzysztof Popek -Forest Flower
TTITLE8=Krzysztof Popek - Stolen Moments
TTITLE9=Piotr Baron - Tenor Sadness
EXTD=YEAR: 2009
EXTT0=
EXTT1=
EXTT2=
EXTT3=
EXTT4=
EXTT5=
EXTT6=
EXTT7=
EXTT8=
EXTT9=
PLAYORDER=
